<svg width="258" height="258" viewBox="0 0 258 258" fill="none" xmlns="http://www.w3.org/2000/svg">
<path d="M128.975 171.327C108.597 171.327 91.5988 156.899 87.5637 137.728H19.7725C24.5642 193.475 71.322 237.215 128.269 237.215C185.215 237.215 232.023 193.475 236.765 137.728H170.386C166.351 156.949 149.353 171.327 128.975 171.327Z" fill="#DFDFDF" fill-opacity="0.4"/>
<path d="M153.186 234.389C198.38 223.795 232.73 185.1 236.765 137.728H210.032C207.358 180.711 184.812 217.136 153.186 234.389Z" fill="#DFDFDF" fill-opacity="0.4"/>
<path d="M153.943 129C153.892 129 153.892 129 153.943 129C153.892 125.923 153.337 122.996 152.328 120.272C148.798 110.788 139.668 104.078 128.975 104.078C118.282 104.078 109.152 110.838 105.621 120.272C104.612 122.996 104.057 125.923 104.057 129H104.108C104.108 132.077 104.663 135.004 105.672 137.728C109.202 147.212 118.332 153.922 129.025 153.922C139.718 153.922 148.848 147.162 152.379 137.728C153.388 135.054 153.943 132.077 153.943 129Z" fill="#DFDFDF" fill-opacity="0.4"/>
<path d="M129.025 86.7231C149.403 86.7231 166.401 101.152 170.436 120.323H238.228C233.436 64.5252 186.678 20.7853 129.681 20.7853C72.6839 20.7853 25.9765 64.5252 21.1848 120.272H87.6141C91.6493 101.101 108.648 86.7231 129.025 86.7231Z" fill="#DFDFDF" fill-opacity="0.4"/>
<path d="M210.032 120.272H238.177C234.041 72.0927 198.531 32.8428 152.177 23.106C184.358 40.1076 207.308 76.8854 210.032 120.272Z" fill="#DFDFDF" fill-opacity="0.4"/>
</svg>
